
<svg width="807px" height="854px" viewBox="0 0 807 854" version="1.1" xmlns="http://www.w3.org/2000/svg" xmlns:xlink="http://www.w3.org/1999/xlink">
    <!-- Generator: Sketch 43.2 (39069) - http://www.bohemiancoding.com/sketch -->
    <desc>Created with Sketch.</desc>
    <defs></defs>
    <g id="Page-1" stroke="none" stroke-width="1" fill="none" fill-rule="evenodd">
        <g id="angular-icon" fill-rule="nonzero">
            <polygon id="Shape" fill="#B3B3B3" points="402.353924 0.0805501942 0.690284794 141.436162 64.1638946 667.67995 402.778539 853.788085 743.142344 665.15761 806.590604 138.932835"></polygon>
            <polygon id="Shape" fill="#00122B" points="766.527858 169.346678 401.415968 44.8394109 401.415968 809.32392 707.395462 639.981741 766.52469 169.346678"></polygon>
            <polygon id="Shape" fill="#002F56" points="45.7628536 171.590167 100.154772 642.231567 401.409631 809.32392 401.409631 44.8267358 45.7660224 171.586998"></polygon>
        </g>
        <g id="Group-2" transform="translate(96.000000, 457.000000)">
            <path d="M65.764599,0.485294009 C83.5589857,0.485294009 97.3669675,5.17299223 107.188959,14.5485293 C117.01095,23.9240664 122.463987,34.575027 123.548232,46.5017306 L104.988589,46.5017306 C102.883876,37.4450893 98.6904591,30.270041 92.4082114,24.9763705 C86.1259638,19.6826999 77.3086267,17.0359043 65.9559355,17.0359043 C52.115857,17.0359043 40.9387262,21.8989926 32.4242078,31.625315 C23.9096894,41.3516375 19.6524941,56.2597934 19.6524941,76.35023 C19.6524941,92.8052543 23.4951311,106.150844 31.1805203,116.3874 C38.8659096,126.623956 50.3300423,131.742157 65.5732624,131.742157 C79.6046785,131.742157 90.2875282,126.352898 97.622132,115.57422 C101.512661,109.897874 104.414569,102.435824 106.327944,93.1878451 L124.887588,93.1878451 C123.22933,107.984611 117.744404,120.389472 108.432646,130.402801 C97.2712926,142.457063 82.2196357,148.484104 63.277224,148.484104 C46.9497581,148.484104 33.2374436,143.541293 22.1398691,133.655522 C7.53444055,120.580794 0.231835839,100.394991 0.231835839,73.0975089 C0.231835839,52.3692807 5.71676165,35.3723885 16.6867778,22.1063224 C28.5497023,7.69223141 44.9088124,0.485294009 65.764599,0.485294009 Z M188.411318,40.0919567 C195.682142,40.0919567 202.729634,41.7980237 209.554005,45.210209 C216.378375,48.6223943 221.576299,53.0390351 225.147932,58.460264 C228.592007,63.6263763 230.888023,69.6534169 232.036048,76.5415666 C233.056514,81.2612247 233.56674,88.7870531 233.56674,99.1192777 L158.46715,99.1192777 C158.786046,109.515281 161.241507,117.854282 165.833607,124.13653 C170.425706,130.418777 177.536977,133.559854 187.16763,133.559854 C196.160492,133.559854 203.335541,130.594167 208.69299,124.662705 C211.75439,121.21863 213.922849,117.232492 215.198433,112.704172 L232.131716,112.704172 C231.685262,116.467142 230.202418,120.660559 227.683141,125.284549 C225.163865,129.908538 222.341679,133.687397 219.2165,136.621238 C213.986608,141.723572 207.51312,145.167595 199.795842,146.953411 C195.650196,147.973878 190.962498,148.484104 185.732606,148.484104 C172.976773,148.484104 162.166367,143.844239 153.301064,134.564371 C144.43576,125.284502 140.003174,112.289693 140.003174,95.5795518 C140.003174,79.1245275 144.467649,65.7629931 153.396732,55.4945477 C162.325815,45.2261024 173.997227,40.0919567 188.411318,40.0919567 Z M215.86811,85.4387154 C215.16654,77.9765533 213.540195,72.0132909 210.989029,67.5487494 C206.269371,59.2574581 198.392762,55.1118747 187.358967,55.1118747 C179.45035,55.1118747 172.817417,57.9659494 167.459967,63.6741846 C162.102517,69.3824198 159.264387,76.6371908 158.945491,85.4387154 L215.86811,85.4387154 Z M254.709427,42.3879951 L271.068701,42.3879951 L271.068701,56.9295717 C275.915917,50.9343304 281.050063,46.6293014 286.471292,44.0143557 C291.892521,41.3994099 297.919561,40.0919567 304.552594,40.0919567 C319.094244,40.0919567 328.916088,45.1623242 334.018421,55.3032112 C336.824704,60.8519985 338.227824,68.7923852 338.227824,79.1246098 L338.227824,144.848709 L320.720531,144.848709 L320.720531,80.272629 C320.720531,74.0222709 319.795747,68.9837926 317.946152,65.1570427 C314.884752,58.7791264 309.336048,55.590216 301.299873,55.590216 C297.218007,55.590216 293.869651,56.0047744 291.254705,56.8339035 C286.535047,58.2370451 282.389464,61.0432862 278.81783,65.252711 C275.947768,68.6330067 274.082255,72.1248635 273.221237,75.7283863 C272.360218,79.331909 271.929715,84.4819993 271.929715,91.1788115 L271.929715,144.848709 L254.709427,144.848709 L254.709427,42.3879951 Z" id="OMS-Central" fill="#EAAA00"></path>
            <path d="M367.119641,13.7831832 L384.531266,13.7831832 L384.531266,42.3879951 L400.89054,42.3879951 L400.89054,56.4512304 L384.531266,56.4512304 L384.531266,123.323349 C384.531266,126.894982 385.743052,129.286665 388.16666,130.498469 C389.506022,131.20004 391.73826,131.55082 394.863439,131.55082 C395.692568,131.55082 396.585463,131.534876 397.54215,131.502986 C398.498838,131.471097 399.614956,131.391374 400.89054,131.263815 L400.89054,144.848709 C398.913385,145.422722 396.856538,145.83728 394.719936,146.092397 C392.583334,146.347514 390.271374,146.47507 387.783987,146.47507 C379.747812,146.47507 374.294776,144.418223 371.424713,140.304467 C368.554651,136.190711 367.119641,130.849286 367.119641,124.280032 L367.119641,56.4512304 L353.247742,56.4512304 L353.247742,42.3879951 L367.119641,42.3879951 L367.119641,13.7831832 Z M418.589169,42.3879951 L434.948443,42.3879951 L434.948443,60.0866246 C436.287805,56.6425497 439.572383,52.4491326 444.802274,47.5062474 C450.032166,42.5633622 456.059206,40.0919567 462.883577,40.0919567 C463.202473,40.0919567 463.744587,40.1238458 464.509937,40.187625 C465.275287,40.2514041 466.582741,40.3789605 468.432336,40.570298 L468.432336,58.7472688 C467.41187,58.5559313 466.471141,58.4283749 465.610122,58.3645958 C464.749104,58.3008166 463.808375,58.2689275 462.787908,58.2689275 C454.113942,58.2689275 447.44912,61.0592241 442.793241,66.6399009 C438.137362,72.2205777 435.809457,78.6462321 435.809457,85.9170568 L435.809457,144.848709 L418.589169,144.848709 L418.589169,42.3879951 Z M538.270171,82.7600039 C542.22448,82.2497706 544.871275,80.5915372 546.210638,77.785254 C546.975988,76.2545541 547.358657,74.054206 547.358657,71.1841436 C547.358657,65.3164605 545.269921,61.0592652 541.092385,58.4124299 C536.91485,55.7655946 530.935643,54.4421968 523.154585,54.4421968 C514.161723,54.4421968 507.783902,56.8657687 504.020932,61.7129851 C501.916219,64.39171 500.544988,68.3778479 499.907196,73.6715185 L483.834927,73.6715185 C484.153823,61.0432441 488.251573,52.2577961 496.1283,47.3149109 C504.005026,42.3720257 513.141255,39.9006202 523.537258,39.9006202 C535.59152,39.9006202 545.381475,42.1966356 552.907416,46.7887354 C560.369579,51.3808352 564.100604,58.5239944 564.100604,68.2184273 L564.100604,127.245748 C564.100604,129.031565 564.467328,130.466574 565.200789,131.55082 C565.934249,132.635066 567.480871,133.177181 569.8407,133.177181 C570.60605,133.177181 571.467055,133.129347 572.423743,133.033678 C573.38043,132.93801 574.400882,132.794509 575.485127,132.603171 L575.485127,145.327051 C572.806403,146.092401 570.7655,146.570737 569.362358,146.762075 C567.959217,146.953412 566.045871,147.04908 563.622262,147.04908 C557.6908,147.04908 553.385771,144.944399 550.707046,140.734974 C549.303905,138.502703 548.315342,135.345682 547.74133,131.263815 C544.233476,135.855915 539.194998,139.842053 532.625744,143.222349 C526.05649,146.602645 518.817663,148.292767 510.909047,148.292767 C501.405952,148.292767 493.640955,145.406803 487.613824,139.634789 C481.586693,133.862775 478.573173,126.639893 478.573173,117.965926 C478.573173,108.462831 481.538859,101.096448 487.470321,95.8665566 C493.401784,90.6366651 501.182725,87.4158657 510.813379,86.2040616 L538.270171,82.7600039 Z M592.801084,4.3120247 L610.021372,4.3120247 L610.021372,144.848709 L592.801084,144.848709 L592.801084,4.3120247 Z M305.478405,40.0989034 C319.511879,40.3109825 329.025126,45.3790376 334.018421,55.3032112 C336.824704,60.8519985 338.227824,68.7923852 338.227824,79.1246098 L338.227824,144.848709 L320.720531,144.848709 L320.720531,80.272629 C320.720531,74.0222709 319.795747,68.9837926 317.946152,65.1570427 C315.448035,59.9526323 311.293712,56.8716656 305.483092,55.9140909 L305.478405,40.0989034 Z" id="Path" fill="#DB7F00"></path>
            <path d="M496.558807,117.583253 C496.558807,122.558028 498.376486,126.480388 502.011898,129.35045 C505.64731,132.220513 509.952339,133.655522 514.927114,133.655522 C520.986135,133.655522 526.85373,132.252402 532.530075,129.446118 C542.09695,124.790239 546.880315,117.168744 546.880315,106.581403 L546.880315,92.7095037 C544.775603,94.0488662 542.065029,95.1649848 538.748513,96.0578931 C535.431996,96.9508014 532.179308,97.5885835 528.99035,97.9712584 L518.562508,99.3106142 C512.31215,100.139743 507.624452,101.447197 504.499273,103.233013 C499.205602,106.230634 496.558807,111.013999 496.558807,117.583253 Z" id="Path" fill="#00122B"></path>
        </g>
        <g id="Group" transform="translate(81.000000, 199.000000)">
            <path d="M212.256689,7.02943383 L256.881434,7.02943383 L322.957372,200.012233 L388.563575,7.02943383 L432.718586,7.02943383 L432.718586,235.283647 L403.125334,235.283647 L403.125334,100.568601 C403.125334,95.9071571 403.229718,88.189994 403.43849,77.41688 C403.647262,66.6437659 403.751646,55.0939179 403.751646,42.7669893 L338.145443,235.283647 L307.299566,235.283647 L241.223628,42.7669893 L241.223628,49.7591197 C241.223628,55.352852 241.354109,63.8728072 241.615074,75.3192409 C241.876038,86.7656745 242.006519,95.1820437 242.006519,100.568601 L242.006519,235.283647 L212.256689,235.283647 L212.256689,7.02943383 Z" id="Path" fill="#EAAA00"></path>
            <g id="Group-3">
                <path d="M97.0488721,0.814206795 C132.421307,0.814206795 158.609246,13.762467 175.613475,39.6593758 C188.889505,59.8589646 195.52742,85.7036919 195.52742,117.194333 C195.52742,151.274665 187.934736,179.605458 172.749141,202.187563 C154.926526,228.705997 129.511495,241.965016 96.5032846,241.965016 C65.6774354,241.965016 41.4444985,230.363375 23.8037471,207.159744 C8.07256149,184.784815 0.207086685,156.505815 0.207086685,122.321895 C0.207086685,91.45278 6.93593218,65.0383293 20.393825,43.0777506 C37.6708497,14.9019139 63.2222765,0.814206795 97.0488721,0.814206795 Z" id="Path" fill="#EAAA00"></path>
                <path d="M99.7768097,214.307255 C123.691849,214.307255 140.991347,204.544267 151.675823,185.017998 C162.360299,165.491729 167.702456,143.039446 167.702456,117.660475 C167.702456,90.8312775 161.541926,69.2335796 149.220679,52.8667332 C136.899432,36.4998868 120.054586,28.3165864 98.6856347,28.3165864 C77.9532051,28.3165864 61.040161,36.4221973 47.945995,52.6336622 C34.8518289,68.8451271 28.3048441,92.7476154 28.3048441,124.341844 C28.3048441,149.617227 33.9197929,170.930063 45.1498589,188.280992 C56.3799249,205.631921 74.5887264,214.307255 99.7768097,214.307255 Z" id="Path" fill="#002F56"></path>
            </g>
            <path d="M322.957372,200.012233 L388.563575,7.02943383 L432.718586,7.02943383 L432.718586,235.283647 L403.125334,235.283647 L403.125334,100.568601 C403.125334,95.9071571 403.229718,88.189994 403.43849,77.41688 C403.647262,66.6437659 403.751646,55.0939179 403.751646,42.7669893 L338.145443,235.283647 L322.964285,235.283647 L322.957372,200.012233 Z M480.989966,161.633206 C481.720667,174.581661 484.800004,185.095648 490.228071,193.175483 C500.562274,208.299278 518.777338,215.861062 544.873811,215.861062 C556.565031,215.861062 567.212232,214.203685 576.815733,210.888881 C595.396422,204.466447 604.686627,192.968392 604.686627,176.39437 C604.686627,163.963854 600.772215,155.107244 592.943273,149.824275 C585.009945,144.644893 572.588211,140.138899 555.677696,136.306156 L524.518664,129.314026 C504.163416,124.75617 489.758379,119.732245 481.303122,114.2421 C466.689097,104.712038 459.382194,90.4689515 459.382194,71.5124143 C459.382194,51.0020625 466.532521,34.1693243 480.833388,21.0136947 C495.134255,7.85806499 515.384813,1.28034882 541.585672,1.28034882 C565.698812,1.28034882 586.184236,7.05527286 603.042557,18.6052942 C619.900878,30.1553155 628.329913,48.6195345 628.329913,73.9985051 L599.049817,73.9985051 C597.484029,61.7751642 594.14373,52.4006238 589.028822,45.8746028 C579.529706,33.9620247 563.402327,28.0058251 540.646203,28.0058251 C522.274287,28.0058251 509.06967,31.8385101 501.031956,39.5039951 C492.994243,47.1694801 488.975446,56.0778831 488.975446,66.2294713 C488.975446,77.4169359 493.672741,85.6002363 503.067471,90.7796181 C509.226238,94.0944224 523.161546,98.2378657 544.873811,103.210072 L577.12889,110.512964 C592.682387,114.034944 604.686584,118.851696 613.141842,124.963367 C627.755866,135.632893 635.062769,151.119012 635.062769,171.422189 C635.062769,196.697572 625.79866,214.773343 607.270165,225.650045 C588.741669,236.526746 567.212402,241.965016 542.681718,241.965016 C514.079984,241.965016 491.689547,234.71399 475.509734,220.211721 C459.329921,205.81304 451.396712,186.287063 451.70987,161.633206 L480.989966,161.633206 L480.989966,161.633206" id="Path" fill="#DB7F00"></path>
        </g>
    </g>
</svg>